{
	"patcher" : 	{
		"fileversion" : 1,
		"appversion" : 		{
			"major" : 8,
			"minor" : 5,
			"revision" : 5,
			"architecture" : "x64",
			"modernui" : 1
		}
,
		"classnamespace" : "box",
		"rect" : [ 1756.0, -11.0, 1561.0, 959.0 ],
		"bglocked" : 0,
		"openinpresentation" : 1,
		"default_fontsize" : 12.0,
		"default_fontface" : 0,
		"default_fontname" : "Arial",
		"gridonopen" : 1,
		"gridsize" : [ 15.0, 15.0 ],
		"gridsnaponopen" : 1,
		"objectsnaponopen" : 1,
		"statusbarvisible" : 2,
		"toolbarvisible" : 1,
		"lefttoolbarpinned" : 0,
		"toptoolbarpinned" : 0,
		"righttoolbarpinned" : 0,
		"bottomtoolbarpinned" : 0,
		"toolbars_unpinned_last_save" : 0,
		"tallnewobj" : 0,
		"boxanimatetime" : 200,
		"enablehscroll" : 1,
		"enablevscroll" : 1,
		"devicewidth" : 0.0,
		"description" : "",
		"digest" : "",
		"tags" : "",
		"style" : "",
		"subpatcher_template" : "",
		"assistshowspatchername" : 0,
		"boxes" : [ 			{
				"box" : 				{
					"id" : "obj-7",
					"maxclass" : "message",
					"numinlets" : 2,
					"numoutlets" : 1,
					"outlettype" : [ "" ],
					"patching_rect" : [ 120.0, 345.0, 85.0, 22.0 ],
					"text" : "0 0 0.5 0 1 0.5"
				}

			}
, 			{
				"box" : 				{
					"id" : "obj-5",
					"maxclass" : "newobj",
					"numinlets" : 1,
					"numoutlets" : 1,
					"outlettype" : [ "bang" ],
					"patching_rect" : [ 120.0, 309.0, 58.0, 22.0 ],
					"text" : "loadbang"
				}

			}
, 			{
				"box" : 				{
					"id" : "obj-2",
					"maxclass" : "newobj",
					"numinlets" : 1,
					"numoutlets" : 1,
					"outlettype" : [ "signal" ],
					"patching_rect" : [ 125.0, 772.0, 44.0, 22.0 ],
					"text" : "sig~ 1.",
					"varname" : "g1-sig"
				}

			}
, 			{
				"box" : 				{
					"fontface" : 1,
					"fontsize" : 14.0,
					"id" : "obj-1510",
					"maxclass" : "comment",
					"numinlets" : 1,
					"numoutlets" : 0,
					"patching_rect" : [ 137.75, 179.0, 102.0, 22.0 ],
					"presentation" : 1,
					"presentation_rect" : [ 0.0, 0.0, 102.0, 22.0 ],
					"text" : "Total Grooves"
				}

			}
, 			{
				"box" : 				{
					"id" : "obj-1508",
					"maxclass" : "newobj",
					"numinlets" : 2,
					"numoutlets" : 2,
					"outlettype" : [ "", "" ],
					"patching_rect" : [ 238.5, 142.0, 84.0, 22.0 ],
					"text" : "route columns"
				}

			}
, 			{
				"box" : 				{
					"id" : "obj-1507",
					"maxclass" : "newobj",
					"numinlets" : 1,
					"numoutlets" : 2,
					"outlettype" : [ "", "" ],
					"patching_rect" : [ 120.0, 106.0, 137.5, 22.0 ],
					"text" : "t l l"
				}

			}
, 			{
				"box" : 				{
					"cantchange" : 1,
					"id" : "obj-1506",
					"maxclass" : "number",
					"minimum" : 1,
					"numinlets" : 1,
					"numoutlets" : 2,
					"outlettype" : [ "", "bang" ],
					"parameter_enable" : 0,
					"patching_rect" : [ 238.5, 179.0, 50.0, 22.0 ],
					"presentation" : 1,
					"presentation_rect" : [ 102.0, 0.0, 50.0, 22.0 ],
					"triangle" : 0
				}

			}
, 			{
				"box" : 				{
					"id" : "obj-1504",
					"maxclass" : "newobj",
					"numinlets" : 1,
					"numoutlets" : 0,
					"patching_rect" : [ 351.0, 106.0, 84.0, 22.0 ],
					"text" : "s #0-matrixctrl"
				}

			}
, 			{
				"box" : 				{
					"annotation" : "Matrixctl Messages",
					"comment" : "Matrixctl Messages",
					"hint" : "Matrixctl Messages",
					"id" : "obj-1503",
					"index" : 0,
					"maxclass" : "inlet",
					"numinlets" : 0,
					"numoutlets" : 1,
					"outlettype" : [ "" ],
					"patching_rect" : [ 351.0, 20.0, 30.0, 30.0 ]
				}

			}
, 			{
				"box" : 				{
					"annotation" : "Groove Create / Remove (1, -1)",
					"comment" : "Groove Create / Remove (1, -1)",
					"hint" : "Groove Create / Remove (1, -1)",
					"id" : "obj-1502",
					"index" : 0,
					"maxclass" : "inlet",
					"numinlets" : 0,
					"numoutlets" : 1,
					"outlettype" : [ "" ],
					"patching_rect" : [ 25.0, 20.0, 30.0, 30.0 ]
				}

			}
, 			{
				"box" : 				{
					"id" : "obj-1347",
					"maxclass" : "newobj",
					"numinlets" : 1,
					"numoutlets" : 0,
					"patching_rect" : [ 120.0, 142.0, 84.0, 22.0 ],
					"text" : "s #0-matrixctrl"
				}

			}
, 			{
				"box" : 				{
					"id" : "obj-1346",
					"maxclass" : "newobj",
					"numinlets" : 0,
					"numoutlets" : 1,
					"outlettype" : [ "" ],
					"patching_rect" : [ 25.0, 345.0, 82.0, 22.0 ],
					"text" : "r #0-matrixctrl"
				}

			}
, 			{
				"box" : 				{
					"bgcolor" : [ 0.0, 0.0, 0.0, 1.0 ],
					"color" : [ 0.905882352941176, 0.086274509803922, 0.086274509803922, 1.0 ],
					"columns" : 1,
					"dialmode" : 2,
					"elementcolor" : [ 0.368627450980392, 0.047058823529412, 0.047058823529412, 1.0 ],
					"id" : "obj-22",
					"maxclass" : "matrixctrl",
					"numinlets" : 1,
					"numoutlets" : 2,
					"outlettype" : [ "list", "list" ],
					"parameter_enable" : 0,
					"patching_rect" : [ 25.0, 380.0, 80.0, 144.0 ],
					"presentation" : 1,
					"presentation_rect" : [ 0.0, 23.0, 80.0, 144.0 ],
					"rows" : 2,
					"varname" : "dg-matrixctrl",
					"verticalmargin" : 0
				}

			}
, 			{
				"box" : 				{
					"annotation" : "Audio Out (2)",
					"comment" : "Audio Out (2)",
					"hint" : "Audio Out (2)",
					"id" : "obj-315",
					"index" : 0,
					"maxclass" : "outlet",
					"numinlets" : 1,
					"numoutlets" : 0,
					"patching_rect" : [ 112.5, 1005.0, 30.0, 30.0 ],
					"varname" : "dg-audio-out-1"
				}

			}
, 			{
				"box" : 				{
					"annotation" : "Audio Out (1)",
					"comment" : "Audio Out (1)",
					"hint" : "Audio Out (1)",
					"id" : "obj-314",
					"index" : 0,
					"maxclass" : "outlet",
					"numinlets" : 1,
					"numoutlets" : 0,
					"patching_rect" : [ 25.0, 1005.0, 30.0, 30.0 ],
					"varname" : "dg-audio-out-0"
				}

			}
, 			{
				"box" : 				{
					"id" : "obj-10",
					"maxclass" : "newobj",
					"numinlets" : 2,
					"numoutlets" : 1,
					"outlettype" : [ "signal" ],
					"patching_rect" : [ 50.0, 910.0, 119.0, 22.0 ],
					"text" : "*~ 1.",
					"varname" : "g1-amp"
				}

			}
, 			{
				"box" : 				{
					"id" : "obj-4",
					"maxclass" : "newobj",
					"numinlets" : 6,
					"numoutlets" : 6,
					"outlettype" : [ "", "", "", "", "", "" ],
					"patching_rect" : [ 50.0, 725.0, 144.0, 22.0 ],
					"text" : "route g1 g2 g3 sig amp",
					"varname" : "g1-route"
				}

			}
, 			{
				"box" : 				{
					"id" : "obj-137",
					"linecount" : 4,
					"maxclass" : "newobj",
					"numinlets" : 3,
					"numoutlets" : 2,
					"outlettype" : [ "signal", "signal" ],
					"patching_rect" : [ 50.0, 825.0, 119.0, 62.0 ],
					"text" : "groove~ b1 @timestretch 1 @followglobaltempo 1",
					"varname" : "g1"
				}

			}
, 			{
				"box" : 				{
					"annotation" : "Target Grooves",
					"comment" : "Target Grooves",
					"hint" : "Target Grooves",
					"id" : "obj-26",
					"index" : 0,
					"maxclass" : "inlet",
					"numinlets" : 0,
					"numoutlets" : 1,
					"outlettype" : [ "" ],
					"patching_rect" : [ 50.0, 600.0, 30.0, 30.0 ],
					"varname" : "target-groove-inlet"
				}

			}
, 			{
				"box" : 				{
					"id" : "obj-3",
					"maxclass" : "newobj",
					"numinlets" : 1,
					"numoutlets" : 2,
					"outlettype" : [ "", "" ],
					"patching_rect" : [ 25.0, 70.0, 114.0, 22.0 ],
					"saved_object_attributes" : 					{
						"filename" : "dynamicgroove.js",
						"parameter_enable" : 0
					}
,
					"text" : "js dynamicgroove.js"
				}

			}
, 			{
				"box" : 				{
					"id" : "obj-1",
					"maxclass" : "newobj",
					"numinlets" : 1,
					"numoutlets" : 2,
					"outlettype" : [ "", "" ],
					"patching_rect" : [ 25.0, 106.0, 67.0, 22.0 ],
					"save" : [ "#N", "thispatcher", ";", "#Q", "end", ";" ],
					"text" : "thispatcher"
				}

			}
, 			{
				"box" : 				{
					"id" : "obj-83",
					"maxclass" : "newobj",
					"numinlets" : 2,
					"numoutlets" : 2,
					"outlettype" : [ "", "" ],
					"patching_rect" : [ 50.0, 650.0, 169.0, 22.0 ],
					"text" : "route 0",
					"varname" : "global-groove-route"
				}

			}
, 			{
				"box" : 				{
					"id" : "obj-84",
					"maxclass" : "newobj",
					"numinlets" : 1,
					"numoutlets" : 3,
					"outlettype" : [ "signal", "signal", "" ],
					"patching_rect" : [ 25.0, 950.0, 194.0, 22.0 ],
					"text" : "matrix~ 1 2",
					"varname" : "groove-matrix"
				}

			}
 ],
		"lines" : [ 			{
				"patchline" : 				{
					"destination" : [ "obj-84", 0 ],
					"source" : [ "obj-10", 0 ]
				}

			}
, 			{
				"patchline" : 				{
					"destination" : [ "obj-22", 0 ],
					"source" : [ "obj-1346", 0 ]
				}

			}
, 			{
				"patchline" : 				{
					"destination" : [ "obj-10", 0 ],
					"source" : [ "obj-137", 0 ]
				}

			}
, 			{
				"patchline" : 				{
					"destination" : [ "obj-3", 0 ],
					"source" : [ "obj-1502", 0 ]
				}

			}
, 			{
				"patchline" : 				{
					"destination" : [ "obj-1504", 0 ],
					"source" : [ "obj-1503", 0 ]
				}

			}
, 			{
				"patchline" : 				{
					"destination" : [ "obj-1347", 0 ],
					"source" : [ "obj-1507", 0 ]
				}

			}
, 			{
				"patchline" : 				{
					"destination" : [ "obj-1508", 0 ],
					"source" : [ "obj-1507", 1 ]
				}

			}
, 			{
				"patchline" : 				{
					"destination" : [ "obj-1506", 0 ],
					"source" : [ "obj-1508", 0 ]
				}

			}
, 			{
				"patchline" : 				{
					"destination" : [ "obj-137", 0 ],
					"source" : [ "obj-2", 0 ]
				}

			}
, 			{
				"patchline" : 				{
					"destination" : [ "obj-84", 0 ],
					"source" : [ "obj-22", 0 ]
				}

			}
, 			{
				"patchline" : 				{
					"destination" : [ "obj-83", 0 ],
					"source" : [ "obj-26", 0 ]
				}

			}
, 			{
				"patchline" : 				{
					"destination" : [ "obj-1", 0 ],
					"source" : [ "obj-3", 0 ]
				}

			}
, 			{
				"patchline" : 				{
					"destination" : [ "obj-1507", 0 ],
					"source" : [ "obj-3", 1 ]
				}

			}
, 			{
				"patchline" : 				{
					"destination" : [ "obj-10", 1 ],
					"source" : [ "obj-4", 4 ]
				}

			}
, 			{
				"patchline" : 				{
					"destination" : [ "obj-137", 2 ],
					"source" : [ "obj-4", 2 ]
				}

			}
, 			{
				"patchline" : 				{
					"destination" : [ "obj-137", 1 ],
					"source" : [ "obj-4", 1 ]
				}

			}
, 			{
				"patchline" : 				{
					"destination" : [ "obj-137", 0 ],
					"source" : [ "obj-4", 0 ]
				}

			}
, 			{
				"patchline" : 				{
					"destination" : [ "obj-2", 0 ],
					"source" : [ "obj-4", 3 ]
				}

			}
, 			{
				"patchline" : 				{
					"destination" : [ "obj-7", 0 ],
					"source" : [ "obj-5", 0 ]
				}

			}
, 			{
				"patchline" : 				{
					"destination" : [ "obj-22", 0 ],
					"midpoints" : [ 129.5, 373.0, 34.5, 373.0 ],
					"source" : [ "obj-7", 0 ]
				}

			}
, 			{
				"patchline" : 				{
					"destination" : [ "obj-4", 0 ],
					"source" : [ "obj-83", 0 ]
				}

			}
, 			{
				"patchline" : 				{
					"destination" : [ "obj-314", 0 ],
					"source" : [ "obj-84", 0 ]
				}

			}
, 			{
				"patchline" : 				{
					"destination" : [ "obj-315", 0 ],
					"source" : [ "obj-84", 1 ]
				}

			}
 ],
		"dependency_cache" : [ 			{
				"name" : "dynamicgroove.js",
				"bootpath" : "~/workspace/projects/grooveportal/js",
				"patcherrelativepath" : "../js",
				"type" : "TEXT",
				"implicit" : 1
			}
 ],
		"autosave" : 0
	}

}
